<svg width="112" height="263" fill="none" xmlns="http://www.w3.org/2000/svg"><g clip-path="url(#a)"><path d="M15.924 252.346c15.884-7.183 29.678-18.556 40.273-32.343 10.803-14.047 18.45-30.814 21.297-48.354 1.475-9.111 1.582-18.708-1.462-27.511-3.066-8.868-9.147-16.415-15.947-22.753-6.922-6.47-15.005-12.068-23.897-15.456-8.102-3.098-17.355-4.256-25.618-1.086-12.793 4.915-21.64 22.701-11.727 34.272 2.75 3.203 6.455 5.418 10.333 6.99 4.198 1.697 8.782 2.767 13.322 2.82 8.726.109 16.279-4.237 21.786-10.809C55.807 124.4 58.867 104.59 56.262 87.305c-2.708-18.003-11.949-34.364-24.879-47.04-12.361-12.148-27.882-21.04-44.666-25.438-16.214-4.246-33.7-4.257-49.612 1.261a75.303 75.303 0 0 0-11.186 4.952c-.531.291-.065 1.126.472.816 14.45-7.863 31.172-10.443 47.439-8.53 16.4 1.93 32.139 8.316 45.48 17.985 14.053 10.175 25.705 24.086 31.88 40.414 6.32 16.663 6.86 35.841.134 52.48-3.105 7.688-7.948 15.167-14.998 19.767-7.764 5.059-17.091 4.769-25.564 1.729-7.609-2.729-14.735-8.366-15.259-17.007-.426-7.017 3.17-13.962 8.306-18.562 13.633-12.244 33.897-4.349 46.808 4.791 7.706 5.457 14.886 12.292 19.976 20.302 4.977 7.842 7.086 16.75 6.897 25.989-.168 8.87-2.124 17.714-4.94 26.091a109.711 109.711 0 0 1-10.929 23.126c-8.918 14.296-21.083 26.657-35.497 35.417a98.428 98.428 0 0 1-10.745 5.661c-.485.265-.014 1.082.545.837Z" fill="#EAD1D0"/></g><defs><clipPath id="a"><rect x="53.662" y="262.576" width="186" height="222" rx="2" transform="rotate(-165 53.662 262.576)" fill="#fff"/></clipPath></defs></svg>