<svg width="16" height="684" fill="none" xmlns="http://www.w3.org/2000/svg"><path d="M7.646 683.354a.5.5 0 0 0 .708 0l3.182-3.182a.501.501 0 0 0-.707-.708L8 682.293l-2.828-2.829a.5.5 0 0 0-.707.708l3.181 3.182ZM7.5 5.022a.5.5 0 0 0 1 0h-1Zm1 10.044a.5.5 0 1 0-1 0h1Zm-1 10.044a.5.5 0 0 0 1 0h-1Zm1 10.044a.5.5 0 0 0-1 0h1Zm-1 10.044a.5.5 0 1 0 1 0h-1Zm1 10.045a.5.5 0 0 0-1 0h1Zm-1 10.044a.5.5 0 0 0 1 0h-1Zm1 10.044a.5.5 0 1 0-1 0h1Zm-1 10.044a.5.5 0 1 0 1 0h-1Zm1 10.044a.5.5 0 0 0-1 0h1Zm-1 10.044a.5.5 0 0 0 1 0h-1Zm1 10.044a.5.5 0 0 0-1 0h1Zm-1 10.044a.5.5 0 1 0 1 0h-1Zm1 10.045a.5.5 0 1 0-1 0h1Zm-1 10.044a.5.5 0 0 0 1 0h-1Zm1 10.044a.5.5 0 0 0-1 0h1Zm-1 10.044a.5.5 0 0 0 1 0h-1Zm1 10.044a.5.5 0 0 0-1 0h1Zm-1 10.044a.5.5 0 0 0 1 0h-1Zm1 10.044a.5.5 0 0 0-1 0h1Zm-1 10.044a.5.5 0 1 0 1 0h-1Zm1 10.045a.5.5 0 1 0-1 0h1Zm-1 10.044a.5.5 0 0 0 1 0h-1Zm1 10.044a.5.5 0 0 0-1 0h1Zm-1 10.044a.5.5 0 0 0 1 0h-1Zm1 10.044a.5.5 0 0 0-1 0h1Zm-1 10.044a.5.5 0 0 0 1 0h-1Zm1 10.044a.5.5 0 0 0-1 0h1Zm-1 10.044a.5.5 0 1 0 1 0h-1Zm1 10.044a.5.5 0 0 0-1 0h1Zm-1 10.045a.5.5 0 0 0 1 0h-1Zm1 10.044a.5.5 0 0 0-1 0h1Zm-1 10.044a.5.5 0 0 0 1 0h-1Zm1 10.044a.5.5 0 0 0-1 0h1Zm-1 10.044a.5.5 0 0 0 1 0h-1Zm1 10.044a.5.5 0 0 0-1 0h1Zm-1 10.044a.5.5 0 1 0 1 0h-1Zm1 10.045a.5.5 0 1 0-1 0h1Zm-1 10.044a.5.5 0 0 0 1 0h-1Zm1 10.044a.5.5 0 0 0-1 0h1Zm-1 10.044a.5.5 0 0 0 1 0h-1Zm1 10.044a.5.5 0 0 0-1 0h1Zm-1 10.044a.5.5 0 0 0 1 0h-1Zm1 10.044a.5.5 0 0 0-1 0h1Zm-1 10.044a.5.5 0 1 0 1 0h-1Zm1 10.045a.5.5 0 1 0-1 0h1Zm-1 10.044a.5.5 0 0 0 1 0h-1Zm1 10.044a.5.5 0 0 0-1 0h1Zm-1 10.044a.5.5 0 0 0 1 0h-1Zm1 10.044a.5.5 0 0 0-1 0h1Zm-1 10.044a.5.5 0 0 0 1 0h-1Zm1 10.044a.5.5 0 0 0-1 0h1Zm-1 10.044a.5.5 0 1 0 1 0h-1Zm1 10.045a.5.5 0 1 0-1 0h1Zm-1 10.044a.5.5 0 0 0 1 0h-1Zm1 10.044a.5.5 0 0 0-1 0h1Zm-1 10.044a.5.5 0 0 0 1 0h-1Zm1 10.044a.5.5 0 0 0-1 0h1Zm-1 10.044a.5.5 0 0 0 1 0h-1Zm1 10.044a.5.5 0 0 0-1 0h1Zm-1 10.044a.5.5 0 1 0 1 0h-1Zm1 10.045a.5.5 0 1 0-1 0h1Zm-1 10.044a.5.5 0 0 0 1 0h-1Zm1 10.044a.5.5 0 0 0-1 0h1Zm-1 10.044a.5.5 0 0 0 1 0h-1Zm1 10.044a.5.5 0 0 0-1 0h1Zm-1 10.044a.5.5 0 0 0 1 0h-1Zm1 10.044a.5.5 0 0 0-1 0h1ZM7.5 0v5.022h1V0h-1Zm0 15.066V25.11h1V15.066h-1Zm0 20.088v10.044h1V35.154h-1Zm0 20.089v10.044h1V55.243h-1Zm0 20.088v10.044h1V75.331h-1Zm0 20.088v10.044h1V95.419h-1Zm0 20.088v10.044h1v-10.044h-1Zm0 20.089v10.044h1v-10.044h-1Zm0 20.088v10.044h1v-10.044h-1Zm0 20.088v10.044h1v-10.044h-1Zm0 20.088v10.044h1V195.86h-1Zm0 20.089v10.044h1v-10.044h-1Zm0 20.088v10.044h1v-10.044h-1Zm0 20.088v10.044h1v-10.044h-1Zm0 20.088v10.044h1v-10.044h-1Zm0 20.088v10.045h1v-10.045h-1Zm0 20.089v10.044h1V316.39h-1Zm0 20.088v10.044h1v-10.044h-1Zm0 20.088v10.044h1v-10.044h-1Zm0 20.089v10.044h1v-10.044h-1Zm0 20.088v10.044h1v-10.044h-1Zm0 20.088v10.044h1v-10.044h-1Zm0 20.088v10.044h1v-10.044h-1Zm0 20.089v10.044h1v-10.044h-1Zm0 20.088v10.044h1v-10.044h-1Zm0 20.088v10.044h1v-10.044h-1Zm0 20.088v10.044h1v-10.044h-1Zm0 20.089v10.044h1v-10.044h-1Zm0 20.088v10.044h1v-10.044h-1Zm0 20.088v10.044h1v-10.044h-1Zm0 20.088v10.044h1v-10.044h-1Zm0 20.089v10.044h1v-10.044h-1Zm0 20.088v10.044h1v-10.044h-1Zm0 20.088v10.044h1V657.89h-1Zm0 20.088V683h1v-5.022h-1Zm-.207 5.729a1 1 0 0 0 1.414 0l6.364-6.364a1 1 0 1 0-1.414-1.414L8 681.586l-5.657-5.657a1 1 0 1 0-1.414 1.414l6.364 6.364ZM7 5.022a1 1 0 0 0 2 0H7Zm2 10.044a1 1 0 1 0-2 0h2ZM7 25.11a1 1 0 1 0 2 0H7Zm2 10.044a1 1 0 1 0-2 0h2ZM7 45.198a1 1 0 1 0 2 0H7Zm2 10.045a1 1 0 0 0-2 0h2ZM7 65.287a1 1 0 1 0 2 0H7ZM9 75.33a1 1 0 1 0-2 0h2ZM7 85.375a1 1 0 1 0 2 0H7Zm2 10.044a1 1 0 1 0-2 0h2Zm-2 10.044a1 1 0 1 0 2 0H7Zm2 10.044a1 1 0 0 0-2 0h2Zm-2 10.044a1 1 0 1 0 2 0H7Zm2 10.045a1 1 0 1 0-2 0h2ZM7 145.64a1 1 0 0 0 2 0H7Zm2 10.044a1 1 0 0 0-2 0h2Zm-2 10.044a1 1 0 0 0 2 0H7Zm2 10.044a1 1 0 0 0-2 0h2Zm-2 10.044a1 1 0 0 0 2 0H7Zm2 10.044a1 1 0 0 0-2 0h2Zm-2 10.044a1 1 0 1 0 2 0H7Zm2 10.045a1 1 0 1 0-2 0h2Zm-2 10.044a1 1 0 0 0 2 0H7Zm2 10.044a1 1 0 1 0-2 0h2Zm-2 10.044a1 1 0 0 0 2 0H7Zm2 10.044a1 1 0 0 0-2 0h2Zm-2 10.044a1 1 0 0 0 2 0H7Zm2 10.044a1 1 0 0 0-2 0h2Zm-2 10.044a1 1 0 1 0 2 0H7Zm2 10.044a1 1 0 0 0-2 0h2Zm-2 10.045a1 1 0 0 0 2 0H7Zm2 10.044a1 1 0 1 0-2 0h2Zm-2 10.044a1 1 0 0 0 2 0H7Zm2 10.044a1 1 0 0 0-2 0h2Zm-2 10.044a1 1 0 0 0 2 0H7Zm2 10.044a1 1 0 0 0-2 0h2ZM7 366.61a1 1 0 1 0 2 0H7Zm2 10.045a1 1 0 1 0-2 0h2Zm-2 10.044a1 1 0 0 0 2 0H7Zm2 10.044a1 1 0 1 0-2 0h2Zm-2 10.044a1 1 0 0 0 2 0H7Zm2 10.044a1 1 0 0 0-2 0h2Zm-2 10.044a1 1 0 0 0 2 0H7Zm2 10.044a1 1 0 0 0-2 0h2Zm-2 10.044a1 1 0 1 0 2 0H7Zm2 10.045a1 1 0 1 0-2 0h2Zm-2 10.044a1 1 0 0 0 2 0H7Zm2 10.044a1 1 0 0 0-2 0h2ZM7 487.14a1 1 0 0 0 2 0H7Zm2 10.044a1 1 0 0 0-2 0h2Zm-2 10.044a1 1 0 0 0 2 0H7Zm2 10.044a1 1 0 0 0-2 0h2Zm-2 10.044a1 1 0 1 0 2 0H7Zm2 10.045a1 1 0 1 0-2 0h2Zm-2 10.044a1 1 0 0 0 2 0H7Zm2 10.044a1 1 0 1 0-2 0h2Zm-2 10.044a1 1 0 0 0 2 0H7Zm2 10.044a1 1 0 0 0-2 0h2Zm-2 10.044a1 1 0 0 0 2 0H7Zm2 10.044a1 1 0 0 0-2 0h2Zm-2 10.044a1 1 0 1 0 2 0H7Zm2 10.045a1 1 0 1 0-2 0h2Zm-2 10.044a1 1 0 0 0 2 0H7Zm2 10.044a1 1 0 0 0-2 0h2Zm-2 10.044a1 1 0 0 0 2 0H7Zm2 10.044a1 1 0 0 0-2 0h2Zm-2 10.044a1 1 0 1 0 2 0H7Zm2 10.044a1 1 0 0 0-2 0h2ZM7 0v5.022h2V0H7Zm0 15.066V25.11h2V15.066H7Zm0 20.088v10.044h2V35.154H7Zm0 20.089v10.044h2V55.243H7ZM7 75.33v10.044h2V75.331H7Zm0 20.088v10.044h2V95.419H7Zm0 20.088v10.044h2v-10.044H7Zm0 20.089v10.044h2v-10.044H7Zm0 20.088v10.044h2v-10.044H7Zm0 20.088v10.044h2v-10.044H7Zm0 20.088v10.044h2V195.86H7Zm0 20.089v10.044h2v-10.044H7Zm0 20.088v10.044h2v-10.044H7Zm0 20.088v10.044h2v-10.044H7Zm0 20.088v10.044h2v-10.044H7Zm0 20.088v10.045h2v-10.045H7Zm0 20.089v10.044h2V316.39H7Zm0 20.088v10.044h2v-10.044H7Zm0 20.088v10.044h2v-10.044H7Zm0 20.089v10.044h2v-10.044H7Zm0 20.088v10.044h2v-10.044H7Zm0 20.088v10.044h2v-10.044H7Zm0 20.088v10.044h2v-10.044H7Zm0 20.089v10.044h2v-10.044H7Zm0 20.088v10.044h2v-10.044H7Zm0 20.088v10.044h2v-10.044H7Zm0 20.088v10.044h2v-10.044H7Zm0 20.089v10.044h2v-10.044H7Zm0 20.088v10.044h2v-10.044H7Zm0 20.088v10.044h2v-10.044H7Zm0 20.088v10.044h2v-10.044H7Zm0 20.089v10.044h2v-10.044H7Zm0 20.088v10.044h2v-10.044H7Zm0 20.088v10.044h2V657.89H7Zm0 20.088V683h2v-5.022H7Z" fill="#EAD1D0"/></svg>