<svg width="20" height="22" fill="none" xmlns="http://www.w3.org/2000/svg"><path d="M19.28 3.474a2.376 2.376 0 0 0-1.746-.795c0-.699-.265-1.378-.723-1.882-.953-1.048-2.522-1.048-3.475 0-.829.892-.934 2.27-.37 3.317L3.777 14.261a2.325 2.325 0 0 0-3.051.407c-.952 1.048-.952 2.774 0 3.822a2.376 2.376 0 0 0 1.746.795c0 .718.265 1.416.723 1.92.953 1.049 2.522 1.049 3.475 0 .917-1.008.952-2.599.176-3.646l9.118-10.07a2.34 2.34 0 0 0 3.316-.193c.952-1.048.952-2.774 0-3.822Zm-.83 2.91a1.26 1.26 0 0 1-1.869 0 1.53 1.53 0 0 1-.158-.194.522.522 0 0 0-.847-.078c-.018.02-9.965 11-10 11.059-.212.29-.176.717.106.93.652.525.723 1.592.159 2.193a1.216 1.216 0 0 1-1.817 0c-.353-.388-.476-1.028-.282-1.571.194-.524-.282-1.048-.759-.835-.476.214-1.058.078-1.428-.31-.794-.873-.265-2.425.935-2.425.352 0 .688.155.934.407.23.253.6.253.83 0C14.87 3.823 14.217 4.58 14.288 4.425a.7.7 0 0 0-.124-.738c-.494-.543-.494-1.455 0-1.998a1.216 1.216 0 0 1 1.817 0c.37.408.476.99.282 1.513a.702.702 0 0 0 0 .466c.123.33.459.485.758.369.477-.214 1.059-.078 1.429.31.511.582.511 1.474 0 2.037Z" fill="#961914"/><path d="M6.473 7.954c.229.252.6.252.829 0a.69.69 0 0 0 0-.912L5.309 4.85a.549.549 0 0 0-.83 0 .69.69 0 0 0 0 .912l1.994 2.192ZM2.187 10.263h2.804c.318 0 .582-.291.582-.64 0-.35-.264-.64-.582-.64H2.187c-.317 0-.582.29-.582.64 0 .368.265.64.582.64ZM8.818 6.072c.318 0 .582-.29.582-.64V2.328c0-.35-.264-.64-.582-.64-.317 0-.582.29-.582.64v3.104c0 .35.247.64.582.64ZM13.598 14.046a.549.549 0 0 0-.829 0 .69.69 0 0 0 0 .912l1.993 2.192a.583.583 0 0 0 .406.194c.511 0 .776-.699.405-1.106l-1.975-2.192ZM17.884 11.737h-2.822c-.318 0-.582.291-.582.64 0 .35.264.64.582.64h2.804c.317 0 .582-.29.582-.64.018-.349-.247-.64-.564-.64ZM11.252 15.928c-.317 0-.582.29-.582.64v3.084c0 .35.265.64.582.64.318 0 .582-.29.582-.64v-3.084c0-.35-.264-.64-.582-.64Z" fill="#961914"/></svg>