<svg width="26" height="27" fill="none" xmlns="http://www.w3.org/2000/svg"><path d="M25.465 8.278c.35-.517.535-1.111.535-1.744 0-1.686-1.31-3.046-2.932-3.046-.608 0-1.18.191-1.678.555a2.81 2.81 0 0 0-3.356 0 2.899 2.899 0 0 0-1.678-.555 2.81 2.81 0 0 0-1.678.555A2.85 2.85 0 0 0 13 3.488c-.627 0-1.199.21-1.678.555a2.81 2.81 0 0 0-3.356 0V1.495L5.569 0h-.96v4.043a3.107 3.107 0 0 0-1.253 2.491c0 1.687 1.31 3.047 2.932 3.047a2.81 2.81 0 0 0 1.678-.555 2.81 2.81 0 0 0 1.678.555 2.77 2.77 0 0 0 1.678-.555A2.77 2.77 0 0 0 13 9.58a2.81 2.81 0 0 0 1.678-.555 2.77 2.77 0 0 0 1.678.555c.608 0 1.18-.191 1.678-.555.48.364 1.051.555 1.66.555.147 0 .313-.019.46-.038-.018.153-.036.307-.036.479s.018.326.037.48a2.87 2.87 0 0 0-2.14.516 2.677 2.677 0 0 0-1.659-.555 2.81 2.81 0 0 0-1.678.556 2.81 2.81 0 0 0-3.356 0 2.73 2.73 0 0 0-1.678-.556 2.77 2.77 0 0 0-1.678.556 2.81 2.81 0 0 0-3.356 0 2.81 2.81 0 0 0-1.678-.556C1.309 10.463 0 11.823 0 13.51c0 .651.184 1.245.535 1.743A3.033 3.033 0 0 0 0 16.997c0 .633.184 1.227.535 1.744A3.065 3.065 0 0 0 0 20.466c0 1.686 1.31 3.046 2.932 3.046a2.9 2.9 0 0 0 1.678-.555 2.81 2.81 0 0 0 3.356 0 2.81 2.81 0 0 0 1.678.555 2.9 2.9 0 0 0 1.678-.555 2.81 2.81 0 0 0 3.356 0 2.9 2.9 0 0 0 1.678.555c.608 0 1.18-.191 1.678-.555v2.548L20.431 27h.96v-4.043a3.107 3.107 0 0 0 1.253-2.491c0-1.687-1.31-3.047-2.932-3.047a2.81 2.81 0 0 0-1.678.555 2.81 2.81 0 0 0-3.356 0A2.856 2.856 0 0 0 13 17.42a2.81 2.81 0 0 0-1.678.555 2.81 2.81 0 0 0-3.356 0 2.81 2.81 0 0 0-1.678-.555c-.148 0-.314.019-.461.038.018-.153.037-.306.037-.479a4.19 4.19 0 0 0-.037-.48c.147.02.295.04.46.04.628 0 1.2-.212 1.679-.556.48.383 1.07.574 1.678.574a2.81 2.81 0 0 0 1.678-.555 2.9 2.9 0 0 0 1.678.555 2.81 2.81 0 0 0 1.678-.555 2.81 2.81 0 0 0 3.356 0 2.9 2.9 0 0 0 1.678.555c.627 0 1.199-.21 1.678-.555.498.364 1.07.555 1.678.555 1.623 0 2.932-1.36 2.932-3.046 0-.633-.184-1.227-.535-1.744.35-.518.535-1.112.535-1.744a3.28 3.28 0 0 0-.535-1.744Zm-.848 3.775c.35.403.535.92.535 1.457 0 1.207-.94 2.184-2.102 2.184-.37 0-.738-.115-1.051-.287a3.132 3.132 0 0 0 .627-1.878h-.83c0 1.207-.94 2.184-2.102 2.184-.886 0-1.678-.575-1.973-1.456l-.793.268c.11.326.258.613.46.862-.755.441-1.77.365-2.433-.268l-.277-.249-.295.25a1.959 1.959 0 0 1-1.383.555c-.885 0-1.66-.575-1.973-1.437l-.793.306c.11.307.258.594.461.843a2.124 2.124 0 0 1-2.084 0 3.244 3.244 0 0 0 .609-1.877h-.83c0 1.207-.94 2.184-2.102 2.184-.277 0-.535-.057-.775-.153-.24-.46-.59-.843-1.014-1.13l-.46.727a2.2 2.2 0 0 1 .977 1.84c0 .287-.056.556-.148.805a3.068 3.068 0 0 0-1.53 2.663h.83c0-1.207.94-2.184 2.101-2.184.517 0 1.015.191 1.402.556l.277.268.276-.268a2.204 2.204 0 0 1 2.471-.23 3.097 3.097 0 0 0-.627 1.878h.83c0-.614.258-1.208.7-1.63A2.107 2.107 0 0 1 13 18.3c1.162 0 2.102.977 2.102 2.185h.83c0-.71-.24-1.36-.627-1.878a2.116 2.116 0 0 1 2.452.249l.277.268.277-.268a2.035 2.035 0 0 1 1.401-.556c1.162 0 2.102.977 2.102 2.185 0 .766-.405 1.494-1.05 1.878l-.204.134v3.583l-1.678-1.054v-2.53l-.203-.133a2.468 2.468 0 0 1-.35-.269l-.277-.268-.276.268a2.035 2.035 0 0 1-1.401.556c-.867 0-1.66-.556-1.955-1.399l-.793.307a3.4 3.4 0 0 0 .442.805 2.124 2.124 0 0 1-2.083 0c.203-.269.35-.556.46-.882l-.829-.287c-.295.881-1.088 1.456-1.973 1.456a2.035 2.035 0 0 1-1.401-.556l-.277-.268-.277.268a2.055 2.055 0 0 1-2.434.25c.203-.269.35-.556.461-.882l-.793-.287c-.295.881-1.088 1.456-1.973 1.456-1.161 0-2.102-.977-2.102-2.185 0-1.207.94-2.184 2.102-2.184v-.843c-.682 0-1.309.249-1.807.651a2.23 2.23 0 0 1-.276-1.092c0-.383.092-.767.276-1.092.387.306.83.517 1.346.613l.13-.862c-1.033-.154-1.79-1.054-1.79-2.127 0-1.208.941-2.185 2.103-2.185.516 0 1.014.192 1.401.556l.277.268.277-.268a2.055 2.055 0 0 1 2.434-.25c-.185.25-.332.537-.443.863l.793.287c.295-.862 1.088-1.456 1.973-1.456 1.162 0 2.102.977 2.102 2.185h.83c0-.71-.24-1.361-.627-1.878.756-.441 1.77-.364 2.434.249l.277.268.295-.268a2.035 2.035 0 0 1 1.401-.556c1.143 0 2.084.977 2.084 2.185h.83c0-.71-.24-1.361-.627-1.878a2.081 2.081 0 0 1 1.843-.134c.111.191.24.383.388.555l.627-.575a2.21 2.21 0 0 1-.535-1.456c0-.287.055-.556.147-.824.185-.115.37-.25.535-.402l-.553-.652a2.035 2.035 0 0 1-1.401.556c-.886 0-1.678-.575-1.973-1.457l-.793.307c.11.326.258.613.46.862-.755.441-1.77.364-2.433-.249l-.277-.268-.295.268c-.664.613-1.678.69-2.434.25.184-.25.35-.537.46-.863l-.792-.287c-.295.862-1.088 1.456-1.973 1.456a2.035 2.035 0 0 1-1.401-.556l-.277-.268-.277.268a2.126 2.126 0 0 1-1.401.556c-1.162 0-2.102-.977-2.102-2.185 0-.766.405-1.494 1.05-1.878l.204-.134V.94l1.678 1.054v2.53l.203.133c.129.077.24.173.35.269l.295.249.277-.268c.663-.614 1.678-.69 2.452-.25a3.016 3.016 0 0 0-.627 1.878h.83c0-1.207.94-2.184 2.102-2.184.516 0 1.014.192 1.401.556l.277.268.277-.268a2.035 2.035 0 0 1 1.401-.556c1.143 0 2.084.977 2.084 2.184h.83c0-.709-.24-1.36-.627-1.878a2.116 2.116 0 0 1 2.452.25l.277.268.276-.268a2.035 2.035 0 0 1 1.402-.556c1.161 0 2.102.977 2.102 2.184 0 .384-.11.767-.277 1.093a2.87 2.87 0 0 0-1.807-.652v.862c1.162 0 2.102.978 2.102 2.185a2.21 2.21 0 0 1-.535 1.456l-.258.288.24.287Z" fill="#961914"/></svg>