<svg width="26" height="20" fill="none" xmlns="http://www.w3.org/2000/svg"><path d="M23.784 3.479c-1.193-.934-2.859-1.687-4.968-2.26C14.75.12 10.165 0 8.376 0 3.76 0 0 3.705 0 8.253v3.494C0 16.295 3.76 20 8.376 20c2.125 0 3.73-.663 5.427-1.355 1.757-.723 3.56-1.461 6.113-1.461 3.363 0 6.084-2.696 6.084-5.994V7.696c0-1.642-.749-3.057-2.216-4.217Zm-.428 8.554c.198.196.52.211.718.015a5.92 5.92 0 0 0 .902-1.054v.196c0 2.756-2.278 5-5.075 5-2.751 0-4.662.783-6.496 1.536-1.59.663-3.103 1.28-5.029 1.28-3.897 0-7.107-2.997-7.352-6.792a8.396 8.396 0 0 0 7.352 4.292c2.125 0 3.73-.663 5.427-1.355 1.757-.723 3.56-1.461 6.113-1.461.184 0 .383-.015.566-.03.275-.03.49-.271.459-.543a.508.508 0 0 0-.55-.451c-.153.015-.322.015-.474.015-2.752 0-4.662.783-6.497 1.536-1.605.678-3.118 1.295-5.044 1.295-4.066 0-7.367-3.253-7.367-7.259S4.31.994 8.376.994c1.743 0 6.221.12 10.165 1.19 4.264 1.16 6.435 3.012 6.435 5.512 0 1.37-.58 2.696-1.605 3.63a.509.509 0 0 0-.015.707Z" fill="#961914"/><path d="M22.943 12.35a.504.504 0 0 0-.673-.242h-.015a.51.51 0 0 0-.23.678c.093.18.276.271.46.271a.621.621 0 0 0 .229-.045.492.492 0 0 0 .229-.663ZM12.045 2.139h-.03a.52.52 0 0 0-.551.466.516.516 0 0 0 .458.543H12a.5.5 0 0 0 .504-.467c.03-.271-.183-.512-.458-.542Z" fill="#961914"/><path d="M23.646 6.355c-.504-.994-1.62-1.837-3.332-2.53-1.376-.557-2.889-.918-3.913-1.114a33.61 33.61 0 0 0-1.91-.316.512.512 0 0 0-.566.436.485.485 0 0 0 .428.558c.642.09 1.253.195 1.85.3 3.484.678 5.869 1.808 6.541 3.103.138.271.214.572.214.904 0 1.656-1.36 2.997-3.041 2.997-1.697 0-3.333.27-5.03.828-.733.241-1.436.527-2.124.813-.458.181-.917.377-1.39.543-1.163.451-2.064.632-2.997.632-2.935 0-5.334-2.35-5.334-5.256 0-2.892 2.384-5.256 5.334-5.256.581 0 1.162.015 1.727.03.092 0 .2 0 .29.015a.5.5 0 0 0 .536-.482.507.507 0 0 0-.49-.527c-.106 0-.198-.015-.305-.015-.58 0-1.177-.015-1.758-.015-3.5 0-6.343 2.801-6.343 6.25s2.843 6.25 6.343 6.25c1.07 0 2.064-.21 3.363-.693.474-.165.948-.361 1.406-.557.673-.271 1.36-.557 2.048-.783 1.59-.527 3.119-.783 4.708-.783 2.232 0 4.05-1.792 4.05-3.991a2.63 2.63 0 0 0-.305-1.34Z" fill="#961914"/><path d="M8.865 3.991c-1.421 0-2.568 1.04-2.568 2.304 0 1.265 1.147 2.29 2.568 2.29 1.422 0 2.568-1.04 2.568-2.305 0-1.265-1.146-2.289-2.568-2.289Zm0 3.6c-.856 0-1.559-.588-1.559-1.296C7.306 5.572 8.01 5 8.866 5c.855 0 1.559.572 1.559 1.295S9.72 7.59 8.864 7.59Z" fill="#961914"/></svg>