<svg width="30" height="31" fill="none" xmlns="http://www.w3.org/2000/svg"><path d="M10.863 13.13c-.46-1.587-1.865-2.676-3.49-2.676-1.623 0-3.028 1.089-3.489 2.676-1.163.749-2.128 1.905-2.809 3.334C.373 17.96 0 19.707 0 21.544c0 2.494.68 4.83 1.931 6.53 1.36 1.883 3.292 2.903 5.443 2.903 2.15 0 4.082-1.02 5.442-2.902a.453.453 0 0 0-.087-.635c-.198-.159-.461-.114-.615.09-1.185 1.633-2.875 2.54-4.74 2.54-1.866 0-3.555-.907-4.74-2.54C1.492 25.966.878 23.834.878 21.544c0-1.701.329-3.334.987-4.672.637-1.338 1.537-2.381 2.634-3.039a.4.4 0 0 0 .197-.294c.308-1.27 1.405-2.178 2.678-2.178s2.392.885 2.677 2.178a.54.54 0 0 0 .198.294c1.097.658 1.997 1.724 2.633 3.039.637 1.36.988 2.97.988 4.672 0 1.519-.264 2.97-.79 4.24-.088.227 0 .5.241.59.22.09.483 0 .57-.25.571-1.383.857-2.948.857-4.58 0-1.837-.373-3.606-1.076-5.08-.658-1.429-1.646-2.585-2.809-3.334Z" fill="#961914"/><path d="M4.082 18.709a.437.437 0 0 0-.549.317 9.286 9.286 0 0 0-.329 2.518c0 3.56 1.756 6.122 4.17 6.122 2.414 0 4.17-2.585 4.17-6.122 0-3.538-1.756-6.123-4.17-6.123-1.097 0-2.107.544-2.853 1.542a.471.471 0 0 0 .066.635c.197.158.46.113.614-.091.593-.771 1.339-1.18 2.173-1.18 1.91 0 3.292 2.2 3.292 5.216 0 3.017-1.383 5.216-3.292 5.216-1.91 0-3.292-2.2-3.292-5.215 0-.817.11-1.588.307-2.268a.474.474 0 0 0-.307-.567ZM28.069 2.903C26.709 1.02 24.777 0 22.626 0c-2.15 0-4.104 1.02-5.442 2.903-.878 1.202-1.493 2.744-1.756 4.444-.066.227.11.477.351.522a.463.463 0 0 0 .505-.385c.241-1.543.79-2.949 1.602-4.037 1.185-1.633 2.853-2.54 4.74-2.54 1.866 0 3.555.907 4.74 2.54 1.142 1.565 1.756 3.696 1.756 5.987 0 1.7-.329 3.333-.987 4.671-.637 1.338-1.537 2.381-2.634 3.04a.4.4 0 0 0-.197.294c-.308 1.27-1.405 2.177-2.678 2.177a2.746 2.746 0 0 1-2.677-2.177.525.525 0 0 0-.22-.272c-1.097-.658-1.997-1.724-2.633-3.039-.637-1.36-.966-2.993-.966-4.694a.448.448 0 0 0-.439-.454.448.448 0 0 0-.439.454c0 1.837.373 3.606 1.076 5.08.68 1.428 1.646 2.585 2.809 3.333.46 1.587 1.865 2.676 3.49 2.676 1.623 0 3.028-1.088 3.489-2.676 1.163-.748 2.15-1.905 2.809-3.334C29.627 13.04 30 11.271 30 9.434c0-2.494-.702-4.807-1.931-6.53Z" fill="#961914"/><path d="M26.05 11.86c.241.046.483-.09.526-.34.154-.658.22-1.36.22-2.086 0-3.56-1.756-6.123-4.17-6.123-2.414 0-4.191 2.585-4.191 6.123 0 3.537 1.755 6.123 4.17 6.123 1.294 0 2.435-.749 3.225-2.087a.448.448 0 0 0-.153-.612.418.418 0 0 0-.593.159c-.614 1.066-1.492 1.655-2.458 1.655-1.91 0-3.292-2.2-3.292-5.216s1.383-5.215 3.292-5.215c1.91 0 3.292 2.2 3.292 5.215 0 .658-.066 1.293-.197 1.883a.422.422 0 0 0 .329.521ZM6.43 23.584a.448.448 0 0 0-.439-.453.448.448 0 0 0-.439.453c0 .25.198.454.44.454a.448.448 0 0 0 .438-.454ZM7.747 25.308a.446.446 0 0 0 .439-.454.446.446 0 0 0-.44-.453.446.446 0 0 0-.438.453c0 .25.196.454.439.454ZM8.515 19.208a.446.446 0 0 0 .439-.454.446.446 0 0 0-.439-.453.446.446 0 0 0-.439.453c0 .25.197.454.439.454Z" fill="#961914"/><path d="M20.783 7.415c0 .25.197.454.439.454a.448.448 0 0 0 .438-.454.448.448 0 0 0-.438-.453.448.448 0 0 0-.44.453ZM22.977 6.6a.446.446 0 0 0 .44-.454.446.446 0 0 0-.44-.454.446.446 0 0 0-.439.454c0 .25.197.453.44.453ZM23.767 12.7a.446.446 0 0 0 .44-.454.446.446 0 0 0-.44-.454.446.446 0 0 0-.439.454c0 .25.197.453.44.453Z" fill="#961914"/></svg>