<svg width="30" height="29" fill="none" xmlns="http://www.w3.org/2000/svg"><g clip-path="url(#a)"><path d="M29.103 15.842c-.268-.601-.593-1.242-.956-1.883a34.299 34.299 0 0 1-2.314-4.907c-.057-.16-.134-.32-.191-.48a.444.444 0 0 0-.593-.22c-.23.12-.306.4-.21.62.057.14.115.26.172.4.593 1.643 1.377 3.286 2.371 5.048.363.62.67 1.242.918 1.802.554 1.222.822 2.243.822 3.024 0 4.847-3.92 8.813-8.738 8.813-1.51 0-2.983-.4-4.302-1.142.765-.7 1.434-1.502 2.007-2.403a13.228 13.228 0 0 0 1.874-5.428c.344-3.104-.401-5.928-1.93-7.21-.957-.8-1.932-1.021-2.869-.94.21-.522.42-1.042.612-1.563a4.96 4.96 0 0 1 1.759-2.323 4.858 4.858 0 0 1 2.849-.922c.134 0 .248 0 .363.02 1.186.08 2.295.601 3.136 1.463.172.18.459.18.63 0a.488.488 0 0 0 0-.661 5.67 5.67 0 0 0-3.651-1.703c.096-1.282.65-2.663 1.97-3.164.229-.08.343-.36.267-.601a.45.45 0 0 0-.574-.28c-1.72.66-2.447 2.443-2.543 4.045-1.09.06-2.084.42-2.944 1.042a5.933 5.933 0 0 0-2.103 2.763c-.249.681-.555 1.402-.88 2.123-.918.26-1.76.761-2.466 1.162-.421.24-.823.48-1.148.6a8.864 8.864 0 0 0-.516-2.322c2.141-.22 4.13-1.422 5.373-3.285 1.376-2.023 1.74-4.646.994-7.01a.433.433 0 0 0-.42-.32C13.5.06 11.262 1.302 9.886 3.325A8.192 8.192 0 0 0 8.529 8.29c-.42-.44-.88-.74-1.338-.86-.249-.08-.478.08-.555.32-.057.24.077.5.325.58 1.32.381 2.39 2.664 2.582 4.587a5.121 5.121 0 0 1-.593-.3c-.153-.08-.325-.18-.497-.281-1.033-.6-2.295-1.322-3.652-1.402-1.014-.06-1.95.26-2.773.961C.9 12.818.174 14.62.04 16.803c-.23 3.405.937 6.89 3.135 9.333.173.18.46.2.631.02.173-.18.192-.48.02-.66C1.799 23.231.709 20.007.919 16.882c.134-1.922.746-3.504 1.664-4.266.669-.54 1.376-.8 2.18-.74 1.147.06 2.275.7 3.27 1.281.19.1.362.2.534.3.287.16.517.28.727.361.268.1.516.16.727.16.554 0 1.204-.36 2.007-.84 1.587-.902 3.576-2.064 5.43-.522 1.282 1.062 1.913 3.605 1.607 6.37-.21 1.802-.803 3.544-1.721 5.026-1.071 1.722-2.543 3.024-4.379 3.925-.401.2-.841.1-1.377-.28-.44-.32-.936-.48-1.453-.52h-.057a2.553 2.553 0 0 0-1.625.52c-.536.38-.975.46-1.377.28a10.831 10.831 0 0 1-1.988-1.241.428.428 0 0 0-.631.1c-.153.2-.115.5.095.66.65.522 1.377.982 2.142 1.343.267.14.535.18.803.18.573 0 1.09-.26 1.453-.54.325-.241.707-.361 1.109-.341h.057c.344.02.689.14.975.34.555.4 1.377.781 2.257.36.707-.34 1.376-.76 1.988-1.221a9.522 9.522 0 0 0 5.048 1.442c5.315 0 9.617-4.366 9.617-9.733 0-.942-.305-2.103-.898-3.445ZM10.23 9.633l2.581-3.825 2.16.3c-.114.22-.248.461-.4.681a6.586 6.586 0 0 1-4.341 2.844Zm3.327-6.549-.593-1.362a6.23 6.23 0 0 1 1.989-.7l-1.396 2.062Zm2.122-1.522a7.37 7.37 0 0 1-.306 3.645l-1.97-.26 2.276-3.385Zm-3.48.661.784 1.763-.726 1.04-.593.862-.899-2.243c.402-.54.88-1.041 1.434-1.422Zm-2.026 2.383.88 2.183-1.55 2.304c-.248-1.523-.019-3.125.67-4.487Z" fill="#961914"/></g><defs><clipPath id="a"><path fill="#fff" d="M0 0h30v29H0z"/></clipPath></defs></svg>