<svg width="26" height="20" fill="none" xmlns="http://www.w3.org/2000/svg"><g clip-path="url(#a)"><path d="M17.725.476c-.349 0-.587.27-.587.663s.238.662.587.662c3.908 0 7.1.124 7.1 1.201 0 2.609-5.852 5.528-9.284 7.205-.422-.393-.715-1.325-.715-2.07 0-.746.238-1.408.642-1.864.642-.662 1.01-1.739 1.01-2.795 0-1.263-.588-2.401-1.597-2.94-.055-.062-.184-.062-.239-.062C13.835.393 12.936.331 12.11.27 10.752.124 9.34 0 8.037 0c-3.835 0-5.725 1.925-6.68 3.54C.717 4.658 0 6.73 0 8.613c0 1.801.716 4.14 1.248 6.004.11.331.183.662.293.932.11.393.239.786.294 1.118C2.367 18.53 2.715 20 4.312 20c.88 0 1.89-1.077 3.596-3.002 1.138-1.263 2.44-2.65 3.266-3.126.588-.332 1.303-.663 2.074-.994.293-.145.403-.539.293-.87a.556.556 0 0 0-.77-.331c-.771.393-1.487.725-2.074.994-1.064.538-2.367 2.008-3.596 3.395-.954 1.015-2.367 2.609-2.79 2.609-.586 0-.825-.476-1.302-2.402-.11-.331-.165-.724-.293-1.138-.11-.332-.184-.663-.294-.994-.532-1.802-1.174-3.996-1.174-5.528 0-1.74.715-3.54 1.119-4.265 1.12-2.008 3.064-3.023 5.725-3.023 1.247 0 2.66.124 4.018.27a99.85 99.85 0 0 1 2.477.206c.532.332.826.932.826 1.677 0 .746-.239 1.408-.642 1.864-.643.662-.991 1.718-.991 2.795 0 .993.422 2.733 1.596 3.395.184.062.349.062.477 0 5.083-2.526 10.165-5.259 10.165-8.53C26 .6 22.991.476 17.725.476Z" fill="#961914"/></g><defs><clipPath id="a"><path fill="#fff" d="M0 0h26v20H0z"/></clipPath></defs></svg>