<svg width="30" height="30" fill="none" xmlns="http://www.w3.org/2000/svg"><path d="M30 16.914a6.716 6.716 0 0 0-2.734-5.38 2.019 2.019 0 0 0-1.217-.405c-.546 0-1.058.211-1.428.582-.07-.053-.141-.124-.212-.177a1.753 1.753 0 0 0-.917-.37l.212-2.346v-.176a1.87 1.87 0 0 0-1.87-1.87h-.123a1.87 1.87 0 0 0-1.87 1.87v.176l.212 2.364c-.3.053-.6.176-.847.37-.088.07-.158.141-.247.212a.474.474 0 0 0-.14-.124c.035-.176.052-.353.052-.511 0-.617-.194-1.2-.546-1.693a2.895 2.895 0 0 0 .546-1.694c0-1.657-1.393-2.998-3.068-2.892-.318-.882-1.041-1.57-1.923-1.816a2.895 2.895 0 0 0-2.434-1.094A2.896 2.896 0 0 0 8.713 0C7.654 0 6.702.564 6.19 1.446a2.934 2.934 0 0 0-2.698 2.187C1.993 4.198.97 5.643.97 7.25a3.83 3.83 0 0 0 1.693 3.192 3 3 0 0 0-.247 1.164c0 .864.388 1.675 1.058 2.222-.052.23-.088.459-.088.688a2.886 2.886 0 0 0 2.558 2.875l1.075 2.998a5.493 5.493 0 0 0-1.375 1.481l-2.54-.564a1.556 1.556 0 0 0-.3-.035c-.74 0-1.358.6-1.358 1.358v.194a.95.95 0 0 0 .07.388h-.07A1.48 1.48 0 0 0 0 24.674c0 .793.653 1.446 1.446 1.446h.07c-.035.123-.07.247-.07.388v.194c0 .74.6 1.358 1.358 1.358.106 0 .194-.018.3-.035l2.54-.565c.934 1.517 2.61 2.54 4.515 2.54h.106c.264 0 .546-.018.81-.07l16.597-2.558A2.736 2.736 0 0 0 30 24.656a2.719 2.719 0 0 0-1.57-2.47A6.682 6.682 0 0 0 30 17.902v-.987Zm-6.173-4.604a5.95 5.95 0 0 1 2.31 4.71v1.78c0 .988-.246 1.958-.705 2.823l-3.88-.6a9.663 9.663 0 0 1-.247-2.134v-1.975c0-.494.053-.97.124-1.464.123.017.229.017.352.017 1.376 0 2.417-.617 2.417-1.446 0-.458-.318-.864-.865-1.129l.07-.776c.142.036.283.089.424.194Zm-2.116-4.568h.123c.494 0 .9.406.9.9v.088l-.441 4.833.37.123c.423.141.564.318.564.353 0 .123-.511.476-1.446.476-.934 0-1.446-.37-1.446-.476 0-.035.141-.212.564-.353l.37-.123-.458-4.833v-.088c0-.494.406-.9.9-.9Zm-1.57 4.392.07.758c-.546.265-.864.67-.864 1.13 0 .528.441.97 1.112 1.234a10.517 10.517 0 0 0-.142 1.658v1.957c0 .67.071 1.323.195 1.976l-2.858-.441a5.685 5.685 0 0 1-.247-1.64v-1.747c0-1.834.882-3.597 2.364-4.709.123-.088.247-.14.37-.176ZM14.921 20a5.606 5.606 0 0 1-.406-2.081v-1.005c0-1.8.882-3.528 2.346-4.604a1.066 1.066 0 0 1 1.393.106 6.826 6.826 0 0 0-1.799 4.603v1.782c0 .494.053.987.159 1.481L14.92 20Zm.035-14.533.088.494.494-.106c.159-.035.3-.053.423-.053 1.076 0 1.94.865 1.94 1.94 0 .512-.194.988-.546 1.359l-.336.335.336.335c.352.37.546.846.546 1.358v.035c-.14-.018-.264-.035-.405-.035-.441 0-.865.14-1.217.405-.882.635-1.57 1.5-2.046 2.452a35.656 35.656 0 0 0-.565-1.64c.441-2.364 2.1-3.722 2.117-3.74l-.3-.387-.3-.37c-.07.052-1.376 1.128-2.116 3.05-1.006-2.31-1.958-3.809-2.01-3.897l-.83.511c.018.018.759 1.182 1.605 3.034-1.428-.547-3.086-.388-3.174-.388l.088.97c.723-.07 2.786-.035 3.756.952.335.83.67 1.746.97 2.734-1.463-.776-3.227-.776-3.315-.776v.952c.017 0 2.169.018 3.457 1.023-.036.3-.071.6-.071.9v1.022c0 .653.106 1.288.282 1.905l-2.751-.423-.423-.053a1.95 1.95 0 0 1-1.94-1.958c0-.229.052-.458.14-.687l.142-.37-.353-.195c-.564-.353-.9-.97-.9-1.64 0-.388.106-.758.318-1.076l.3-.458-.476-.23a2.863 2.863 0 0 1-1.588-2.592 2.91 2.91 0 0 1 2.1-2.787l.299-.088.053-.318c.123-.934.952-1.64 1.905-1.64h.053c.035 0 .07.018.105.018l.353.035.123-.335a1.922 1.922 0 0 1 1.782-1.182c.934 0 1.728.688 1.887 1.605ZM6.63 16.455h-.335a1.934 1.934 0 0 1-1.94-1.94c0-.23.053-.459.141-.688l.141-.37-.352-.212c-.565-.353-.9-.97-.9-1.64 0-.388.106-.758.318-1.076l.3-.459-.477-.229A2.863 2.863 0 0 1 1.94 7.25a2.91 2.91 0 0 1 2.099-2.787l.3-.088.053-.318c.14-.934.952-1.657 1.904-1.657h.053c.035 0 .07 0 .106.017l.353.035.14-.317C7.232 1.429 7.938.97 8.714.97c.934 0 1.728.67 1.904 1.605l.088.494.494-.106c.159-.035.283-.053.424-.053.229 0 .44.053.635.124-.724.194-1.34.67-1.711 1.322-1.288.036-2.381.953-2.699 2.187a3.857 3.857 0 0 0-2.522 3.616A3.83 3.83 0 0 0 7.02 13.35a2.862 2.862 0 0 0 .811 3.386c-.052.23-.088.459-.088.688 0 .847.37 1.623.953 2.152a6.695 6.695 0 0 0-.829.317l-1.235-3.439ZM2.416 22.84v-.195c0-.246.23-.423.476-.37l2.31.512c-.07.14-.123.282-.158.44h-2.24a.391.391 0 0 1-.388-.387ZM.97 24.674c0-.265.212-.476.476-.476h3.422c-.018.158-.018.317-.018.476 0 .159.018.317.018.476H1.446a.474.474 0 0 1-.476-.476Zm1.922 2.416c-.229.053-.476-.141-.476-.37v-.194c0-.212.177-.388.388-.388h2.24c.035.158.088.3.141.44l-2.293.512Zm26.138-2.416c0 .882-.635 1.622-1.5 1.746l-16.595 2.557c-.212.035-.441.053-.67.053h-.106a4.366 4.366 0 0 1-4.357-4.356 4.366 4.366 0 0 1 4.357-4.357h.106c.211 0 .44.018.67.053l16.596 2.558a1.75 1.75 0 0 1 1.499 1.746Zm0-6.755c0 1.481-.6 2.928-1.658 4.003l-.97-.14c.441-.935.67-1.94.67-2.981v-1.782c0-1.71-.652-3.368-1.781-4.62.194-.177.459-.3.74-.3.23 0 .46.07.636.211a5.756 5.756 0 0 1 2.345 4.604l.018 1.005Z" fill="#961914"/><path d="M9.683 22.257h.97v4.833h-.97v-4.833ZM13.545 22.257h.97v4.833h-.97v-4.833ZM17.425 22.257h.97v4.833h-.97v-4.833ZM21.288 23.227h.97v2.91h-.97v-2.91ZM25.15 23.704h.97v1.94h-.97v-1.94Z" fill="#961914"/></svg>