<svg width="326" height="2" fill="none" xmlns="http://www.w3.org/2000/svg"><path d="M5.094 1.5a.5.5 0 0 0 0-1v1ZM15.28.5a.5.5 0 0 0 0 1v-1Zm10.188 1a.5.5 0 0 0 0-1v1Zm10.187-1a.5.5 0 0 0 0 1v-1Zm10.188 1a.5.5 0 0 0 0-1v1ZM56.03.5a.5.5 0 0 0 0 1v-1Zm10.188 1a.5.5 0 0 0 0-1v1Zm10.187-1a.5.5 0 0 0 0 1v-1Zm10.188 1a.5.5 0 0 0 0-1v1ZM96.78.5a.5.5 0 0 0 0 1v-1Zm10.188 1a.5.5 0 0 0 0-1v1Zm10.187-1a.5.5 0 0 0 0 1v-1Zm10.188 1a.5.5 0 0 0 0-1v1Zm10.187-1a.5.5 0 0 0 0 1v-1Zm10.188 1a.5.5 0 0 0 0-1v1Zm10.187-1a.5.5 0 0 0 0 1v-1Zm10.188 1a.5.5 0 0 0 0-1v1Zm10.187-1a.5.5 0 0 0 0 1v-1Zm10.188 1a.5.5 0 0 0 0-1v1Zm10.187-1a.5.5 0 0 0 0 1v-1Zm10.188 1a.5.5 0 0 0 0-1v1Zm10.187-1a.5.5 0 0 0 0 1v-1Zm10.188 1a.5.5 0 0 0 0-1v1Zm10.187-1a.5.5 0 0 0 0 1v-1Zm10.188 1a.5.5 0 0 0 0-1v1Zm10.187-1a.5.5 0 0 0 0 1v-1Zm10.188 1a.5.5 0 0 0 0-1v1Zm10.187-1a.5.5 0 0 0 0 1v-1Zm10.188 1a.5.5 0 0 0 0-1v1Zm10.187-1a.5.5 0 0 0 0 1v-1Zm10.188 1a.5.5 0 0 0 0-1v1Zm10.187-1a.5.5 0 0 0 0 1v-1ZM0 1.5h5.094v-1H0v1Zm15.281 0H25.47v-1H15.28v1Zm20.375 0h10.188v-1H35.656v1Zm20.375 0H66.22v-1H56.03v1Zm20.375 0h10.188v-1H76.406v1Zm20.375 0h10.188v-1H96.781v1Zm20.375 0h10.188v-1h-10.188v1Zm20.375 0h10.188v-1h-10.188v1Zm20.375 0h10.188v-1h-10.188v1Zm20.375 0h10.188v-1h-10.188v1Zm20.375 0h10.188v-1h-10.188v1Zm20.375 0h10.188v-1h-10.188v1Zm20.375 0h10.188v-1h-10.188v1Zm20.375 0h10.188v-1h-10.188v1Zm20.375 0h10.188v-1h-10.188v1Zm20.375 0h10.188v-1h-10.188v1Zm20.375 0H326v-1h-5.094v1ZM5.094 2a1 1 0 0 0 0-2v2ZM15.28 0a1 1 0 0 0 0 2V0ZM25.47 2a1 1 0 0 0 0-2v2Zm10.187-2a1 1 0 0 0 0 2V0Zm10.188 2a1 1 0 0 0 0-2v2ZM56.03 0a1 1 0 0 0 0 2V0ZM66.22 2a1 1 0 0 0 0-2v2Zm10.187-2a1 1 0 0 0 0 2V0Zm10.188 2a1 1 0 0 0 0-2v2ZM96.78 0a1 1 0 0 0 0 2V0Zm10.188 2a1 1 0 0 0 0-2v2Zm10.187-2a1 1 0 0 0 0 2V0Zm10.188 2a1 1 0 0 0 0-2v2Zm10.187-2a1 1 0 0 0 0 2V0Zm10.188 2a1 1 0 0 0 0-2v2Zm10.187-2a1 1 0 0 0 0 2V0Zm10.188 2a1 1 0 0 0 0-2v2Zm10.187-2a1 1 0 0 0 0 2V0Zm10.188 2a1 1 0 0 0 0-2v2Zm10.187-2a1 1 0 0 0 0 2V0Zm10.188 2a1 1 0 0 0 0-2v2Zm10.187-2a1 1 0 0 0 0 2V0Zm10.188 2a1 1 0 0 0 0-2v2Zm10.187-2a1 1 0 0 0 0 2V0Zm10.188 2a1 1 0 0 0 0-2v2Zm10.187-2a1 1 0 0 0 0 2V0Zm10.188 2a1 1 0 0 0 0-2v2Zm10.187-2a1 1 0 0 0 0 2V0Zm10.188 2a1 1 0 0 0 0-2v2Zm10.187-2a1 1 0 0 0 0 2V0Zm10.188 2a1 1 0 0 0 0-2v2Zm10.187-2a1 1 0 0 0 0 2V0ZM0 2h5.094V0H0v2Zm15.281 0H25.47V0H15.28v2Zm20.375 0h10.188V0H35.656v2Zm20.375 0H66.22V0H56.03v2Zm20.375 0h10.188V0H76.406v2Zm20.375 0h10.188V0H96.781v2Zm20.375 0h10.188V0h-10.188v2Zm20.375 0h10.188V0h-10.188v2Zm20.375 0h10.188V0h-10.188v2Zm20.375 0h10.188V0h-10.188v2Zm20.375 0h10.188V0h-10.188v2Zm20.375 0h10.188V0h-10.188v2Zm20.375 0h10.188V0h-10.188v2Zm20.375 0h10.188V0h-10.188v2Zm20.375 0h10.188V0h-10.188v2Zm20.375 0h10.188V0h-10.188v2Zm20.375 0H326V0h-5.094v2Z" fill="#EAD1D0"/></svg>