<svg width="28" height="30" fill="none" xmlns="http://www.w3.org/2000/svg"><g filter="url(#a)" stroke="#fff" stroke-linecap="round" stroke-linejoin="round"><path d="M6.259 16.594a8.996 8.996 0 1 1 3.147 3.147h0l-3.108.888a.75.75 0 0 1-.927-.927l.888-3.108h0Z"/><path d="M15.938 16.5h-.003A6.425 6.425 0 0 1 9.5 10.066h0A2.572 2.572 0 0 1 12.074 7.5m3.864 9L12.95 8.01a1.01 1.01 0 0 0-.877-.51s0 0 0 0m3.864 9a2.58 2.58 0 0 0 2.562-2.572v-.002M15.938 16.5l2.562-2.574M12.074 7.5s0 0 0 0V8v-.5Zm6.426 6.426a1.01 1.01 0 0 0-.51-.877l-1.515-.866a1.092 1.092 0 0 0-1.104.012l-.924.554a3.07 3.07 0 0 1-1.196-1.196l.555-.924a1.093 1.093 0 0 0 .011-1.104l-.866-1.515 5.549 5.916Zm-.569-.256a.512.512 0 0 1 .069.256l-.257-.443c.078.045.143.11.188.187Z"/></g><defs><filter id="a" x="-2" y="0" width="32" height="32" filterUnits="userSpaceOnUse" color-interpolation-filters="sRGB"><feFlood flood-opacity="0" result="BackgroundImageFix"/><feColorMatrix in="SourceAlpha" values="0 0 0 0 0 0 0 0 0 0 0 0 0 0 0 0 0 0 127 0" result="hardAlpha"/><feOffset dy="4"/><feGaussianBlur stdDeviation="2"/><feComposite in2="hardAlpha" operator="out"/><feColorMatrix values="0 0 0 0 0 0 0 0 0 0 0 0 0 0 0 0 0 0 0.25 0"/><feBlend in2="BackgroundImageFix" result="effect1_dropShadow_191_702"/><feBlend in="SourceGraphic" in2="effect1_dropShadow_191_702" result="shape"/></filter></defs></svg>