<svg width="40" height="40" fill="none" xmlns="http://www.w3.org/2000/svg"><path d="M14.697 28.839c-1.768 5.303-8.84 5.303-8.84 5.303s0-7.071 5.304-8.839M30.606 16.464 20 27.071 12.929 20 23.535 9.393c4.017-4.016 8.033-3.977 9.746-3.721a1.245 1.245 0 0 1 1.047 1.047c.255 1.713.295 5.73-3.722 9.745Z" stroke="#961914" stroke-width="2" stroke-linecap="round" stroke-linejoin="round"/><path d="M28.839 18.232v10.089a1.25 1.25 0 0 1-.366.884l-5.054 5.053a1.25 1.25 0 0 1-2.11-.638L20 27.07M21.768 11.161h-10.09a1.25 1.25 0 0 0-.883.366l-5.053 5.054a1.25 1.25 0 0 0 .638 2.11L12.93 20" stroke="#961914" stroke-width="2" stroke-linecap="round" stroke-linejoin="round"/></svg>