<svg width="40" height="40" fill="none" xmlns="http://www.w3.org/2000/svg"><path d="M20 35c8.284 0 15-6.716 15-15 0-8.284-6.716-15-15-15-8.284 0-15 6.716-15 15 0 8.284 6.716 15 15 15Z" stroke="#961914" stroke-width="2" stroke-linecap="round" stroke-linejoin="round"/><path d="M26.497 23.75a7.505 7.505 0 0 1-12.994 0" stroke="#961914" stroke-width="2" stroke-linecap="round" stroke-linejoin="round"/><path d="M14.375 18.75a1.875 1.875 0 1 0 0-3.75 1.875 1.875 0 0 0 0 3.75ZM25.625 18.75a1.875 1.875 0 1 0 0-3.75 1.875 1.875 0 0 0 0 3.75Z" fill="#961914"/></svg>