<svg width="1147" height="2" fill="none" xmlns="http://www.w3.org/2000/svg"><path d="M5.03 1.5a.5.5 0 0 0 0-1v1Zm10.062-1a.5.5 0 0 0 0 1v-1Zm10.062 1a.5.5 0 0 0 0-1v1Zm10.06-1a.5.5 0 0 0 0 1v-1Zm10.062 1a.5.5 0 1 0 0-1v1Zm10.062-1a.5.5 0 0 0 0 1v-1Zm10.061 1a.5.5 0 1 0 0-1v1ZM75.46.5a.5.5 0 0 0 0 1v-1Zm10.062 1a.5.5 0 1 0 0-1v1Zm10.061-1a.5.5 0 0 0 0 1v-1Zm10.062 1a.5.5 0 0 0 0-1v1Zm10.061-1a.5.5 0 0 0 0 1v-1Zm10.062 1a.5.5 0 0 0 0-1v1Zm10.061-1a.5.5 0 0 0 0 1v-1Zm10.061 1a.5.5 0 0 0 0-1v1Zm10.062-1a.5.5 0 0 0 0 1v-1Zm10.061 1a.5.5 0 0 0 0-1v1Zm10.062-1a.5.5 0 1 0 0 1v-1Zm10.061 1a.5.5 0 0 0 0-1v1Zm10.061-1a.5.5 0 0 0 0 1v-1Zm10.062 1a.5.5 0 0 0 0-1v1Zm10.061-1a.5.5 0 0 0 0 1v-1Zm10.062 1a.5.5 0 0 0 0-1v1Zm10.061-1a.5.5 0 0 0 0 1v-1Zm10.061 1a.5.5 0 0 0 0-1v1Zm10.062-1a.5.5 0 0 0 0 1v-1Zm10.061 1a.5.5 0 0 0 0-1v1Zm10.062-1a.5.5 0 1 0 0 1v-1Zm10.061 1a.5.5 0 0 0 0-1v1Zm10.061-1a.5.5 0 0 0 0 1v-1Zm10.062 1a.5.5 0 0 0 0-1v1Zm10.061-1a.5.5 0 0 0 0 1v-1Zm10.062 1a.5.5 0 0 0 0-1v1Zm10.061-1a.5.5 0 0 0 0 1v-1Zm10.061 1a.5.5 0 1 0 0-1v1Zm10.062-1a.5.5 0 0 0 0 1v-1Zm10.061 1a.5.5 0 0 0 0-1v1Zm10.062-1a.5.5 0 1 0 0 1v-1Zm10.061 1a.5.5 0 0 0 0-1v1Zm10.061-1a.5.5 0 0 0 0 1v-1Zm10.062 1a.5.5 0 0 0 0-1v1Zm10.061-1a.5.5 0 0 0 0 1v-1Zm10.062 1a.5.5 0 0 0 0-1v1Zm10.061-1a.5.5 0 0 0 0 1v-1Zm10.061 1a.5.5 0 1 0 0-1v1Zm10.062-1a.5.5 0 0 0 0 1v-1Zm10.061 1a.5.5 0 0 0 0-1v1Zm10.062-1a.5.5 0 1 0 0 1v-1Zm10.061 1a.5.5 0 0 0 0-1v1Zm10.061-1a.5.5 0 0 0 0 1v-1Zm10.062 1a.5.5 0 0 0 0-1v1Zm10.061-1a.5.5 0 0 0 0 1v-1Zm10.062 1a.5.5 0 0 0 0-1v1Zm10.061-1a.5.5 0 0 0 0 1v-1Zm10.061 1a.5.5 0 1 0 0-1v1Zm10.062-1a.5.5 0 0 0 0 1v-1Zm10.061 1a.5.5 0 0 0 0-1v1Zm10.062-1a.5.5 0 1 0 0 1v-1Zm10.061 1a.5.5 0 0 0 0-1v1Zm10.061-1a.5.5 0 0 0 0 1v-1Zm10.062 1a.5.5 0 0 0 0-1v1Zm10.061-1a.5.5 0 0 0 0 1v-1Zm10.062 1a.5.5 0 0 0 0-1v1Zm10.061-1a.5.5 0 0 0 0 1v-1Zm10.061 1a.5.5 0 1 0 0-1v1Zm10.062-1a.5.5 0 0 0 0 1v-1Zm10.061 1a.5.5 0 0 0 0-1v1Zm10.062-1a.5.5 0 0 0 0 1v-1Zm10.061 1a.5.5 0 0 0 0-1v1Zm10.061-1a.5.5 0 0 0 0 1v-1Zm10.062 1a.5.5 0 0 0 0-1v1Zm10.061-1a.5.5 0 0 0 0 1v-1Zm10.062 1a.5.5 0 0 0 0-1v1Zm10.061-1a.5.5 0 0 0 0 1v-1Zm10.061 1a.5.5 0 1 0 0-1v1Zm10.062-1a.5.5 0 0 0 0 1v-1Zm10.061 1a.5.5 0 0 0 0-1v1Zm10.062-1a.5.5 0 0 0 0 1v-1Zm10.061 1a.5.5 0 0 0 0-1v1Zm10.061-1a.5.5 0 0 0 0 1v-1Zm10.062 1a.5.5 0 0 0 0-1v1Zm10.061-1a.5.5 0 0 0 0 1v-1Zm10.062 1a.5.5 0 0 0 0-1v1Zm10.061-1a.5.5 0 0 0 0 1v-1Zm10.061 1a.5.5 0 1 0 0-1v1Zm10.062-1a.5.5 0 0 0 0 1v-1Zm10.061 1a.5.5 0 0 0 0-1v1Zm10.062-1a.5.5 0 1 0 0 1v-1Zm10.061 1a.5.5 0 0 0 0-1v1Zm10.061-1a.5.5 0 0 0 0 1v-1Zm10.062 1a.5.5 0 0 0 0-1v1Zm10.061-1a.5.5 0 0 0 0 1v-1Zm10.062 1a.5.5 0 0 0 0-1v1Zm10.061-1a.5.5 0 0 0 0 1v-1Zm10.061 1a.5.5 0 1 0 0-1v1Zm10.062-1a.5.5 0 0 0 0 1v-1Zm10.061 1a.5.5 0 0 0 0-1v1Zm10.062-1a.5.5 0 0 0 0 1v-1Zm10.061 1a.5.5 0 0 0 0-1v1Zm10.062-1c-.28 0-.5.224-.5.5s.22.5.5.5v-1Zm10.06 1c.28 0 .5-.224.5-.5s-.22-.5-.5-.5v1Zm10.06-1c-.27 0-.5.224-.5.5s.23.5.5.5v-1Zm10.06 1c.28 0 .5-.224.5-.5s-.22-.5-.5-.5v1Zm10.07-1c-.28 0-.5.224-.5.5s.22.5.5.5v-1Zm10.06 1c.27 0 .5-.224.5-.5s-.23-.5-.5-.5v1Zm10.06-1c-.28 0-.5.224-.5.5s.22.5.5.5v-1Zm10.06 1c.28 0 .5-.224.5-.5s-.22-.5-.5-.5v1Zm10.06-1c-.28 0-.5.224-.5.5s.22.5.5.5v-1Zm10.06 1c.28 0 .5-.224.5-.5s-.22-.5-.5-.5v1Zm10.06-1c-.27 0-.5.224-.5.5s.23.5.5.5v-1Zm10.06 1c.28 0 .5-.224.5-.5s-.22-.5-.5-.5v1Zm10.07-1c-.28 0-.5.224-.5.5s.22.5.5.5v-1Zm10.06 1c.27 0 .5-.224.5-.5s-.23-.5-.5-.5v1Zm10.06-1c-.28 0-.5.224-.5.5s.22.5.5.5v-1ZM0 1.5h5.03v-1H0v1Zm15.092 0h10.062v-1H15.092v1Zm20.123 0h10.061v-1H35.215v1Zm20.123 0h10.061v-1H55.338v1Zm20.122 0h10.062v-1H75.46v1Zm20.123 0h10.062v-1H95.583v1Zm20.123 0h10.062v-1h-10.062v1Zm20.123 0h10.061v-1h-10.061v1Zm20.123 0h10.061v-1h-10.061v1Zm20.123 0h10.061v-1h-10.061v1Zm20.122 0h10.062v-1h-10.062v1Zm20.123 0h10.062v-1H216.32v1Zm20.123 0h10.061v-1h-10.061v1Zm20.123 0h10.061v-1h-10.061v1Zm20.123 0h10.061v-1h-10.061v1Zm20.122 0h10.062v-1h-10.062v1Zm20.123 0h10.062v-1h-10.062v1Zm20.123 0h10.061v-1h-10.061v1Zm20.123 0h10.061v-1H357.18v1Zm20.123 0h10.061v-1h-10.061v1Zm20.122 0h10.062v-1h-10.062v1Zm20.123 0h10.062v-1h-10.062v1Zm20.123 0h10.061v-1h-10.061v1Zm20.123 0h10.061v-1h-10.061v1Zm20.123 0h10.061v-1h-10.061v1Zm20.122 0h10.062v-1h-10.062v1Zm20.123 0h10.062v-1h-10.062v1Zm20.123 0h10.061v-1h-10.061v1Zm20.123 0h10.061v-1h-10.061v1Zm20.123 0h10.061v-1h-10.061v1Zm20.122 0h10.062v-1h-10.062v1Zm20.123 0h10.062v-1h-10.062v1Zm20.123 0h10.061v-1h-10.061v1Zm20.123 0h10.061v-1h-10.061v1Zm20.123 0h10.061v-1h-10.061v1Zm20.122 0h10.062v-1h-10.062v1Zm20.123 0h10.062v-1H719.39v1Zm20.123 0h10.061v-1h-10.061v1Zm20.123 0h10.061v-1h-10.061v1Zm20.123 0h10.061v-1h-10.061v1Zm20.122 0h10.062v-1h-10.062v1Zm20.123 0h10.062v-1h-10.062v1Zm20.123 0h10.061v-1h-10.061v1Zm20.123 0h10.061v-1H860.25v1Zm20.123 0h10.061v-1h-10.061v1Zm20.122 0h10.062v-1h-10.062v1Zm20.123 0h10.062v-1h-10.062v1Zm20.123 0h10.061v-1h-10.061v1Zm20.123 0h10.061v-1h-10.061v1Zm20.123 0h10.061v-1h-10.061v1Zm20.123 0h10.06v-1h-10.06v1Zm20.12 0h10.06v-1h-10.06v1Zm20.13 0h10.06v-1h-10.06v1Zm20.12 0h10.06v-1h-10.06v1Zm20.12 0h10.06v-1h-10.06v1Zm20.12 0h10.06v-1h-10.06v1Zm20.13 0h10.06v-1h-10.06v1Zm20.12 0h5.03v-1h-5.03v1ZM5.03 2a1 1 0 1 0 0-2v2Zm10.062-2a1 1 0 1 0 0 2V0Zm10.062 2a1 1 0 1 0 0-2v2Zm10.06-2a1 1 0 1 0 0 2V0Zm10.062 2a1 1 0 1 0 0-2v2Zm10.062-2a1 1 0 1 0 0 2V0Zm10.061 2a1 1 0 1 0 0-2v2ZM75.46 0a1 1 0 1 0 0 2V0Zm10.062 2a1 1 0 1 0 0-2v2Zm10.061-2a1 1 0 1 0 0 2V0Zm10.062 2a1 1 0 0 0 0-2v2Zm10.061-2a1 1 0 0 0 0 2V0Zm10.062 2a1 1 0 0 0 0-2v2Zm10.061-2a1 1 0 0 0 0 2V0Zm10.061 2a1 1 0 1 0 0-2v2Zm10.062-2a1 1 0 1 0 0 2V0Zm10.061 2a1 1 0 0 0 0-2v2Zm10.062-2a1 1 0 1 0 0 2V0Zm10.061 2a1 1 0 0 0 0-2v2Zm10.061-2a1 1 0 0 0 0 2V0Zm10.062 2a1 1 0 0 0 0-2v2Zm10.061-2a1 1 0 0 0 0 2V0Zm10.062 2a1 1 0 0 0 0-2v2Zm10.061-2a1 1 0 0 0 0 2V0Zm10.061 2a1 1 0 1 0 0-2v2Zm10.062-2a1 1 0 1 0 0 2V0Zm10.061 2a1 1 0 0 0 0-2v2Zm10.062-2a1 1 0 1 0 0 2V0Zm10.061 2a1 1 0 0 0 0-2v2Zm10.061-2a1 1 0 0 0 0 2V0Zm10.062 2a1 1 0 0 0 0-2v2Zm10.061-2a1 1 0 0 0 0 2V0Zm10.062 2a1 1 0 0 0 0-2v2Zm10.061-2a1 1 0 0 0 0 2V0Zm10.061 2a1 1 0 1 0 0-2v2Zm10.062-2a1 1 0 0 0 0 2V0Zm10.061 2a1 1 0 0 0 0-2v2Zm10.062-2a1 1 0 1 0 0 2V0Zm10.061 2a1 1 0 0 0 0-2v2Zm10.061-2a1 1 0 0 0 0 2V0Zm10.062 2a1 1 0 0 0 0-2v2Zm10.061-2a1 1 0 0 0 0 2V0Zm10.062 2a1 1 0 0 0 0-2v2Zm10.061-2a1 1 0 0 0 0 2V0Zm10.061 2a1 1 0 1 0 0-2v2Zm10.062-2a1 1 0 0 0 0 2V0Zm10.061 2a1 1 0 0 0 0-2v2Zm10.062-2a1 1 0 1 0 0 2V0Zm10.061 2a1 1 0 0 0 0-2v2Zm10.061-2a1 1 0 0 0 0 2V0Zm10.062 2a1 1 0 0 0 0-2v2Zm10.061-2a1 1 0 0 0 0 2V0Zm10.062 2a1 1 0 0 0 0-2v2Zm10.061-2a1 1 0 0 0 0 2V0Zm10.061 2a1 1 0 1 0 0-2v2Zm10.062-2a1 1 0 0 0 0 2V0Zm10.061 2a1 1 0 1 0 0-2v2Zm10.062-2a1 1 0 1 0 0 2V0Zm10.061 2a1 1 0 0 0 0-2v2Zm10.061-2a1 1 0 0 0 0 2V0Zm10.062 2a1 1 0 0 0 0-2v2Zm10.061-2a1 1 0 0 0 0 2V0Zm10.062 2a1 1 0 0 0 0-2v2Zm10.061-2a1 1 0 0 0 0 2V0Zm10.061 2a1 1 0 1 0 0-2v2Zm10.062-2a1 1 0 0 0 0 2V0Zm10.061 2a1 1 0 0 0 0-2v2Zm10.062-2a1 1 0 1 0 0 2V0Zm10.061 2a1 1 0 0 0 0-2v2Zm10.061-2a1 1 0 0 0 0 2V0Zm10.062 2a1 1 0 0 0 0-2v2Zm10.061-2a1 1 0 0 0 0 2V0Zm10.062 2a1 1 0 0 0 0-2v2Zm10.061-2a1 1 0 0 0 0 2V0Zm10.061 2a1 1 0 1 0 0-2v2Zm10.062-2a1 1 0 0 0 0 2V0Zm10.061 2a1 1 0 1 0 0-2v2Zm10.062-2a1 1 0 1 0 0 2V0Zm10.061 2a1 1 0 0 0 0-2v2Zm10.061-2a1 1 0 0 0 0 2V0Zm10.062 2a1 1 0 0 0 0-2v2Zm10.061-2a1 1 0 0 0 0 2V0Zm10.062 2a1 1 0 0 0 0-2v2Zm10.061-2a1 1 0 0 0 0 2V0Zm10.061 2a1 1 0 1 0 0-2v2Zm10.062-2a1 1 0 0 0 0 2V0Zm10.061 2a1 1 0 1 0 0-2v2Zm10.062-2a1 1 0 1 0 0 2V0Zm10.061 2a1 1 0 0 0 0-2v2Zm10.061-2a1 1 0 0 0 0 2V0Zm10.062 2a1 1 0 0 0 0-2v2Zm10.061-2a1 1 0 0 0 0 2V0Zm10.062 2a1 1 0 0 0 0-2v2Zm10.061-2a1 1 0 0 0 0 2V0Zm10.061 2a1 1 0 1 0 0-2v2Zm10.062-2a1 1 0 0 0 0 2V0Zm10.061 2a1 1 0 1 0 0-2v2Zm10.062-2a1 1 0 1 0 0 2V0Zm10.061 2a1 1 0 0 0 0-2v2Zm10.062-2c-.55 0-1 .448-1 1s.45 1 1 1V0Zm10.06 2c.55 0 1-.448 1-1s-.45-1-1-1v2Zm10.06-2c-.55 0-1 .448-1 1s.45 1 1 1V0Zm10.06 2c.56 0 1-.448 1-1s-.44-1-1-1v2Zm10.07-2c-.56 0-1 .448-1 1s.44 1 1 1V0Zm10.06 2c.55 0 1-.448 1-1s-.45-1-1-1v2Zm10.06-2c-.55 0-1 .448-1 1s.45 1 1 1V0Zm10.06 2c.55 0 1-.448 1-1s-.45-1-1-1v2Zm10.06-2c-.55 0-1 .448-1 1s.45 1 1 1V0Zm10.06 2c.55 0 1-.448 1-1s-.45-1-1-1v2Zm10.06-2c-.55 0-1 .448-1 1s.45 1 1 1V0Zm10.06 2c.56 0 1-.448 1-1s-.44-1-1-1v2Zm10.07-2c-.56 0-1 .448-1 1s.44 1 1 1V0Zm10.06 2c.55 0 1-.448 1-1s-.45-1-1-1v2Zm10.06-2c-.55 0-1 .448-1 1s.45 1 1 1V0ZM0 2h5.03V0H0v2Zm15.092 0h10.062V0H15.092v2Zm20.123 0h10.061V0H35.215v2Zm20.123 0h10.061V0H55.338v2ZM75.46 2h10.062V0H75.46v2Zm20.123 0h10.062V0H95.583v2Zm20.123 0h10.062V0h-10.062v2Zm20.123 0h10.061V0h-10.061v2Zm20.123 0h10.061V0h-10.061v2Zm20.123 0h10.061V0h-10.061v2Zm20.122 0h10.062V0h-10.062v2Zm20.123 0h10.062V0H216.32v2Zm20.123 0h10.061V0h-10.061v2Zm20.123 0h10.061V0h-10.061v2Zm20.123 0h10.061V0h-10.061v2Zm20.122 0h10.062V0h-10.062v2Zm20.123 0h10.062V0h-10.062v2Zm20.123 0h10.061V0h-10.061v2Zm20.123 0h10.061V0H357.18v2Zm20.123 0h10.061V0h-10.061v2Zm20.122 0h10.062V0h-10.062v2Zm20.123 0h10.062V0h-10.062v2Zm20.123 0h10.061V0h-10.061v2Zm20.123 0h10.061V0h-10.061v2Zm20.123 0h10.061V0h-10.061v2Zm20.122 0h10.062V0h-10.062v2Zm20.123 0h10.062V0h-10.062v2Zm20.123 0h10.061V0h-10.061v2Zm20.123 0h10.061V0h-10.061v2Zm20.123 0h10.061V0h-10.061v2Zm20.122 0h10.062V0h-10.062v2Zm20.123 0h10.062V0h-10.062v2Zm20.123 0h10.061V0h-10.061v2Zm20.123 0h10.061V0h-10.061v2Zm20.123 0h10.061V0h-10.061v2Zm20.122 0h10.062V0h-10.062v2Zm20.123 0h10.062V0H719.39v2Zm20.123 0h10.061V0h-10.061v2Zm20.123 0h10.061V0h-10.061v2Zm20.123 0h10.061V0h-10.061v2Zm20.122 0h10.062V0h-10.062v2Zm20.123 0h10.062V0h-10.062v2Zm20.123 0h10.061V0h-10.061v2Zm20.123 0h10.061V0H860.25v2Zm20.123 0h10.061V0h-10.061v2Zm20.122 0h10.062V0h-10.062v2Zm20.123 0h10.062V0h-10.062v2Zm20.123 0h10.061V0h-10.061v2Zm20.123 0h10.061V0h-10.061v2Zm20.123 0h10.061V0h-10.061v2Zm20.123 0h10.06V0h-10.06v2Zm20.12 0h10.06V0h-10.06v2Zm20.13 0h10.06V0h-10.06v2Zm20.12 0h10.06V0h-10.06v2Zm20.12 0h10.06V0h-10.06v2Zm20.12 0h10.06V0h-10.06v2Zm20.13 0h10.06V0h-10.06v2Zm20.12 0h5.03V0h-5.03v2Z" fill="#EAD1D0"/></svg>